<?xml version="1.0" encoding="iso-8859-1"?>
<!-- Generator: Adobe Illustrator 19.0.0, SVG Export Plug-In . SVG Version: 6.00 Build 0)  -->
<svg version="1.1" id="Capa_1" xmlns="http://www.w3.org/2000/svg" xmlns:xlink="http://www.w3.org/1999/xlink" x="0px" y="0px"
	 viewBox="0 0 499.045 499.045" style="enable-background:new 0 0 499.045 499.045;" xml:space="preserve">
<path style="fill:#EC9821;" d="M334.507,19.247H164.554c-17.113,0-31.03,13.917-31.03,31.03v80.787
	c0,17.113,13.917,31.03,31.03,31.03h169.969c17.113,0,31.03-13.917,31.03-31.03V50.277C365.537,33.164,351.62,19.247,334.507,19.247
	z M164.554,131.064V50.277h169.969l0.016,80.787H164.554z"/>
<path style="fill:#FF9F5F;" d="M26.608,255.123v193.645c0,17.129,13.886,31.03,31.03,31.03h383.783
	c17.144,0,31.03-13.902,31.03-31.03V255.123H26.608z"/>
<path style="fill:#F99755;" d="M456.89,405.403c-8.58,0-15.469,6.982-15.469,15.562v25.817c0,6.904-4.949,12.971-14.274,12.971
	c-7.075,0.496-12.971-5.182-12.971-12.272v-25.6c0-8.471-6.284-15.965-14.77-16.462c-8.875-0.388-16.368,6.687-16.368,15.562v25.786
	c0,7.184-5.787,13.064-13.064,13.064l-0.9-0.093h-0.202c-7.587,0.093-13.762-6.082-13.762-13.669V421.88
	c0-8.471-6.284-15.965-14.662-16.462c-8.983-0.403-16.368,6.687-16.368,15.562v25.802c0,7.478-6.377,13.064-13.871,12.971
	c0,0-0.093,0-0.202,0h-0.093c-7.587,0.093-13.871-5.492-13.871-12.971v-25.01c0-8.378-6.284-15.856-14.662-16.353
	c-8.983-0.403-16.368,6.687-16.368,15.562l-0.016,19.999c0,8.859-7.401,15.981-16.368,15.515
	c-8.394-0.434-14.693-7.975-14.693-16.384v-19.58c-0.248-8.363-7.09-15.127-15.515-15.127c-8.58,0-15.562,6.982-15.562,15.562
	v25.802c0,7.184-5.88,13.064-13.064,12.971c-9.712,0-14.165-5.648-14.165-12.272v-25.6c0-8.471-6.284-15.965-14.662-16.462
	c-8.983-0.388-16.368,6.687-16.368,15.562v25.786c0,7.835-6.951,13.762-13.964,12.971h-0.171
	c-7.587,0.093-13.762-6.082-13.762-13.669v-24.188c0-8.471-6.284-15.965-14.77-16.462c-8.875-0.388-16.368,6.687-16.368,15.562
	v27.989c0,7.478-6.284,13.064-13.762,12.971c-0.093,0-0.093,0-0.202,0c-0.093,0-0.093,0-0.202,0
	c-7.478,0.093-13.762-5.492-13.762-12.971v-27.183c0-8.378-6.284-15.856-14.662-16.368c-8.983-0.403-16.368,6.687-16.368,15.562
	v27.788c0,17.144,13.886,31.03,31.03,31.03h383.783c17.144,0,31.03-13.886,31.03-31.03v-27.819
	C472.452,412.385,465.47,405.403,456.89,405.403z"/>
<path style="fill:#FFBD49;" d="M0,85.962v149.768c0,34.273,27.788,62.061,62.061,62.061h374.924
	c34.273,0,62.061-27.788,62.061-62.061V85.962H0z"/>
<path style="fill:#F3F3F3;" d="M255.519,259.995c-14.01,0-25.367,11.357-25.367,25.367v24.855c0,14.01,11.357,25.352,25.367,25.352
	s25.367-11.357,25.367-25.352v-24.855C280.886,271.352,269.529,259.995,255.519,259.995z"/>
<circle style="fill:#ED6262;" cx="255.519" cy="297.79" r="15.36"/>
<path style="fill:#F7B346;" d="M0,224.993c0,9.588,7.82,17.408,17.424,17.408s17.315-7.82,17.315-17.424v-65.071
	c0-8.037,6.594-14.631,14.631-14.522c10.923,0,15.856,6.237,15.856,13.731v65.908c0,9.495,7.028,17.873,16.524,18.432
	c9.945,0.45,18.323-7.478,18.323-17.424v-44.684c0-8.037,6.47-14.631,14.631-14.631c11.916,1.35,16.632,7.323,16.632,15.407v49.695
	c0,9.495,7.028,17.873,16.415,18.416c10.054,0.45,18.308-7.478,18.308-17.424v-59.532c0-8.378,7.152-14.631,15.515-14.522
	c0,0,0.109,0,0.217,0h0.109c8.487-0.109,15.531,6.144,15.531,14.522v50.641c0,9.387,7.028,17.749,16.415,18.308
	c10.054,0.45,18.308-7.478,18.308-17.424l0.016-48.624c0-9.914,8.285-17.889,18.323-17.361c9.402,0.496,16.446,8.921,16.446,18.339
	v47.197c0.264,9.371,7.944,16.927,17.377,16.927c9.604,0,17.424-7.82,17.424-17.424v-64.016c0-8.037,6.594-14.631,14.631-14.522
	c10.861,0,15.856,6.315,15.856,13.731v73.712c0,9.495,7.044,17.858,16.415,18.416c10.054,0.45,18.308-7.478,18.308-17.424v-52.488
	c0-8.037,6.594-14.631,14.631-14.631c11.885,1.334,16.648,7.308,16.648,15.407v44.203c0,9.495,7.028,17.858,16.524,18.432
	c9.945,0.45,18.308-7.478,18.308-17.424v-48.361c0-8.378,7.044-14.631,15.407-14.522c0.109,0,0.109,0,0.217,0
	c9.526,0,15.639,6.811,15.639,14.522v46.127c0,9.371,7.044,17.749,16.415,18.308c10.054,0.45,18.308-7.478,18.308-17.424V85.962H0
	V224.993z"/>
<g>
</g>
<g>
</g>
<g>
</g>
<g>
</g>
<g>
</g>
<g>
</g>
<g>
</g>
<g>
</g>
<g>
</g>
<g>
</g>
<g>
</g>
<g>
</g>
<g>
</g>
<g>
</g>
<g>
</g>
</svg>
