<?xml version="1.0" encoding="iso-8859-1"?>
<!-- Generator: Adobe Illustrator 19.0.0, SVG Export Plug-In . SVG Version: 6.00 Build 0)  -->
<svg version="1.1" id="Capa_1" xmlns="http://www.w3.org/2000/svg" xmlns:xlink="http://www.w3.org/1999/xlink" x="0px" y="0px"
	 viewBox="0 0 513.855 513.855" style="enable-background:new 0 0 513.855 513.855;" xml:space="preserve">
<path style="fill:#ACB3BA;" d="M483.593,447.721V138.388c0-9.6-7.467-17.067-17.067-17.067h-416c-9.6,0-17.067,7.467-17.067,17.067
	v309.333H483.593z"/>
<rect x="66.529" y="155.46" style="fill:#F2F2F2;" width="382.93" height="260.27"/>
<path style="fill:#CDD6E0;" d="M1.46,469.055L1.46,469.055c0,11.733,9.6,20.267,20.267,20.267h470.4
	c11.733,0,20.267-9.6,20.267-20.267l0,0c0-11.733-9.6-20.267-20.267-20.267h-470.4C11.06,447.721,1.46,457.321,1.46,469.055z"/>
<g>
	<polygon style="fill:#ACB3BA;" points="448.393,513.855 66.526,513.855 38.793,489.321 476.126,489.321 	"/>
	<path style="fill:#ACB3BA;" d="M286.26,474.388h-57.6c-3.2,0-6.4-3.2-6.4-6.4l0,0c0-3.2,3.2-6.4,6.4-6.4h57.6
		c3.2,0,6.4,3.2,6.4,6.4l0,0C292.66,472.255,289.46,474.388,286.26,474.388z"/>
</g>
<path style="fill:#FFD15C;" d="M390.793,133.055c0-78.933-68.267-140.8-148.267-132.267c-61.867,6.4-110.933,57.6-117.333,118.4
	c-5.333,52.267,20.267,99.2,59.733,124.8c11.733,7.467,19.2,20.267,19.2,34.133v51.2h106.667v-51.2
	c0-13.867,7.467-26.667,19.2-34.133C366.26,221.588,390.793,179.988,390.793,133.055z"/>
<path style="fill:#40596B;" d="M291.593,351.721H222.26c-7.467,0-12.8-5.333-12.8-12.8v-7.467h94.933v7.467
	C304.393,345.321,299.06,351.721,291.593,351.721z"/>
<g>
	<path style="fill:#FF7058;" d="M313.993,286.655H200.926c-4.267,0-7.467-3.2-7.467-7.467l0,0c0-4.267,3.2-7.467,7.467-7.467
		h114.133c4.267,0,7.467,3.2,7.467,7.467l0,0C322.526,283.455,318.26,286.655,313.993,286.655z"/>
	<path style="fill:#FF7058;" d="M313.993,309.055H200.926c-4.267,0-7.467-3.2-7.467-7.467l0,0c0-4.267,3.2-7.467,7.467-7.467
		h114.133c4.267,0,7.467,3.2,7.467,7.467l0,0C322.526,305.855,318.26,309.055,313.993,309.055z"/>
	<path style="fill:#FF7058;" d="M313.993,330.388H200.926c-4.267,0-7.467-3.2-7.467-7.467l0,0c0-4.267,3.2-7.467,7.467-7.467
		h114.133c4.267,0,7.467,3.2,7.467,7.467l0,0C322.526,327.188,318.26,330.388,313.993,330.388z"/>
</g>
<path style="fill:#F8B64C;" d="M333.193,134.121c0-2.133,0-5.333,0-7.467c5.333-3.2,10.667-7.467,16-10.667
	c-2.133-7.467-4.267-14.933-7.467-21.333c-6.4,0-12.8,0-19.2,1.067c-2.133-4.267-5.333-7.467-8.533-11.733
	c2.133-6.4,4.267-11.733,6.4-18.133c-5.333-5.333-11.733-9.6-18.133-13.867c-5.333,4.267-9.6,7.467-14.933,11.733
	c-4.267-2.133-8.533-3.2-13.867-4.267c-2.133-6.4-3.2-11.733-5.333-18.133c-7.467-1.067-14.933-1.067-22.4,0
	c-2.133,6.4-3.2,11.733-5.333,18.133c-4.267,1.067-9.6,2.133-13.867,4.267c-5.333-4.267-9.6-7.467-14.933-11.733
	c-6.4,4.267-12.8,8.533-18.133,13.867c2.133,6.4,4.267,11.733,6.4,18.133c-3.2,3.2-6.4,7.467-8.533,11.733c-6.4,0-12.8,0-19.2-1.067
	c-3.2,7.467-5.333,13.867-7.467,21.333c5.333,3.2,10.667,7.467,16,10.667c0,2.133,0,4.267,0,7.467c0,2.133,0,4.267,0,7.467
	c-5.333,3.2-10.667,7.467-16,10.667c2.133,7.467,4.267,14.933,7.467,21.333c6.4,0,12.8,0,19.2-1.067
	c2.133,4.267,5.333,7.467,8.533,11.733c-2.133,6.4-4.267,11.733-6.4,18.133c5.333,5.333,11.733,9.6,18.133,13.867
	c5.333-4.267,9.6-7.467,14.933-11.733c4.267,2.133,8.533,3.2,13.867,4.267c2.133,6.4,3.2,11.733,5.333,18.133
	c7.467,1.067,14.933,1.067,22.4,0c2.133-6.4,3.2-11.733,5.333-18.133c4.267-1.067,9.6-2.133,13.867-4.267
	c5.333,4.267,9.6,7.467,14.933,11.733c6.4-4.267,12.8-8.533,18.133-13.867c-2.133-6.4-4.267-11.733-6.4-18.133
	c3.2-3.2,6.4-7.467,8.533-11.733c6.4,0,12.8,0,19.2,1.067c3.2-7.467,5.333-13.867,7.467-21.333c-5.333-3.2-10.667-7.467-16-10.667
	C333.193,138.388,333.193,136.255,333.193,134.121z M257.46,173.588c-21.333,0-39.467-18.133-39.467-39.467
	s18.133-39.467,39.467-39.467s39.467,18.133,39.467,39.467S278.793,173.588,257.46,173.588z"/>
<path style="fill:#FFFFFF;" d="M296.926,94.655c-21.333-21.333-56.533-21.333-77.867,0s-21.333,56.533,0,77.867
	c10.667,10.667,24.533,16,39.467,16c13.867,0,28.8-5.333,39.467-16C318.26,151.188,318.26,115.988,296.926,94.655z M281.993,158.655
	c-13.867,13.867-36.267,13.867-50.133,0c-13.867-13.867-13.867-36.267,0-50.133s36.267-13.867,50.133,0
	c6.4,6.4,10.667,16,10.667,24.533S289.46,152.255,281.993,158.655z"/>
<g>
</g>
<g>
</g>
<g>
</g>
<g>
</g>
<g>
</g>
<g>
</g>
<g>
</g>
<g>
</g>
<g>
</g>
<g>
</g>
<g>
</g>
<g>
</g>
<g>
</g>
<g>
</g>
<g>
</g>
</svg>
